<?xml version="1.0" encoding="utf-8"?>
<!-- Generator: Adobe Illustrator 21.0.0, SVG Export Plug-In . SVG Version: 6.00 Build 0)  -->
<svg version="1.1" id="Layer_1" xmlns="http://www.w3.org/2000/svg" xmlns:xlink="http://www.w3.org/1999/xlink" x="0px" y="0px"
	 viewBox="0 0 2834.6 2834.6" style="enable-background:new 0 0 2834.6 2834.6;" xml:space="preserve">
<style type="text/css">
	.st0{fill:#477236;}
	.st1{fill:#FFFFFF;}
</style>
<g>
	<circle class="st0" cx="1417.3" cy="1417.3" r="1001.2"/>
	<circle class="st1" cx="1403.2" cy="1416.5" r="701"/>
	<rect x="1007.4" y="1038.8" class="st0" width="804.9" height="831.4"/>
	<rect x="969.8" y="1211.6" class="st1" width="374.9" height="75.1"/>
	<rect x="969.8" y="1627.3" class="st1" width="374.9" height="75.1"/>
	<rect x="1269.6" y="1211.6" class="st1" width="75.1" height="490.8"/>
	<path class="st1" d="M1847.9,1664.6l-37.5-2c-100.7-5.3-185.6-80.6-197.6-175.2c-6.6-52.1,9.9-106.6,45.1-149.6
		c37.4-45.5,92.7-74,151.8-78.1l37.5-2.6l5.2,74.9l-37.5,2.6c-39.1,2.7-74.3,20.8-99,50.8c-22.2,27.1-32.7,60.8-28.7,92.5
		c7.5,59.1,62.1,106.3,127,109.6l37.5,2L1847.9,1664.6z"/>
</g>
</svg>
